<?xml version="1.0" encoding="utf-8"?>
<!-- Generator: Adobe Illustrator 15.0.0, SVG Export Plug-In . SVG Version: 6.00 Build 0)  -->
<!DOCTYPE svg PUBLIC "-//W3C//DTD SVG 1.1//EN" "http://www.w3.org/Graphics/SVG/1.1/DTD/svg11.dtd">
<svg version="1.1" id="Layer_1" xmlns="http://www.w3.org/2000/svg" xmlns:xlink="http://www.w3.org/1999/xlink" x="0px" y="0px"
	 width="240px" height="80px" viewBox="0 0 240 80" enable-background="new 0 0 240 80" xml:space="preserve">
<g id="guides" display="none">
</g>
<g enable-background="new    ">
	<path fill="#CCCCCC" d="M65.921,52.05l-1.967-6.457h-9.89l-1.967,6.457H45.9l9.574-27.238h7.032l9.611,27.238H65.921z
		 M62.581,40.769c-1.818-5.851-2.842-9.16-3.071-9.927c-0.229-0.767-0.393-1.373-0.492-1.818c-0.408,1.583-1.577,5.499-3.507,11.745
		H62.581z"/>
</g>
<g enable-background="new    ">
	<path fill="#CCCCCC" d="M101.954,52.05h-6.55L91.73,37.8c-0.136-0.507-0.368-1.556-0.696-3.145
		c-0.328-1.589-0.517-2.656-0.566-3.201c-0.074,0.668-0.26,1.741-0.557,3.219s-0.526,2.533-0.687,3.164L85.57,52.05h-6.531
		l-6.921-27.127h5.659l3.47,14.807c0.606,2.734,1.045,5.103,1.317,7.106c0.074-0.705,0.244-1.797,0.51-3.274
		c0.266-1.479,0.516-2.626,0.751-3.442l3.952-15.196h5.437l3.952,15.196c0.173,0.681,0.39,1.72,0.649,3.117
		c0.26,1.398,0.458,2.598,0.594,3.6c0.124-0.965,0.321-2.168,0.594-3.608c0.272-1.441,0.52-2.607,0.742-3.498l3.451-14.807h5.659
		L101.954,52.05z"/>
</g>
<g enable-background="new    ">
	<path fill="#CCCCCC" d="M128.876,52.05l-1.967-6.457h-9.89l-1.967,6.457h-6.197l9.574-27.238h7.032l9.611,27.238H128.876z
		 M125.536,40.769c-1.818-5.851-2.843-9.16-3.071-9.927c-0.229-0.767-0.393-1.373-0.491-1.818
		c-0.408,1.583-1.577,5.499-3.507,11.745H125.536z"/>
	<path fill="#CCCCCC" d="M144.239,41.641V52.05h-5.752V24.923h7.904c3.687,0,6.413,0.671,8.183,2.013
		c1.769,1.342,2.653,3.38,2.653,6.114c0,1.596-0.439,3.016-1.317,4.258c-0.879,1.244-2.121,2.218-3.729,2.923
		c4.082,6.099,6.741,10.038,7.979,11.819h-6.383l-6.476-10.409H144.239z M144.239,36.965h1.855c1.818,0,3.16-0.303,4.026-0.909
		c0.865-0.605,1.299-1.559,1.299-2.857c0-1.286-0.442-2.202-1.326-2.746c-0.885-0.544-2.255-0.816-4.11-0.816h-1.744V36.965z"/>
	<path fill="#CCCCCC" d="M186.08,38.227c0,4.466-1.271,7.886-3.812,10.261c-2.543,2.375-6.213,3.562-11.013,3.562h-7.682V24.923
		h8.517c4.428,0,7.867,1.169,10.316,3.507S186.08,34.033,186.08,38.227z M180.105,38.375c0-5.826-2.573-8.739-7.719-8.739h-3.062
		V47.3h2.468C177.334,47.3,180.105,44.325,180.105,38.375z"/>
	<path fill="#CCCCCC" d="M207.715,44.517c0,2.449-0.881,4.379-2.645,5.789c-1.762,1.41-4.215,2.115-7.356,2.115
		c-2.895,0-5.455-0.544-7.682-1.633v-5.344c1.831,0.816,3.38,1.392,4.647,1.726s2.428,0.501,3.479,0.501
		c1.262,0,2.229-0.241,2.903-0.724s1.012-1.199,1.012-2.152c0-0.531-0.148-1.005-0.445-1.419c-0.297-0.415-0.732-0.813-1.309-1.197
		c-0.574-0.383-1.747-0.995-3.516-1.837c-1.658-0.779-2.9-1.527-3.729-2.245c-0.829-0.717-1.491-1.552-1.985-2.505
		c-0.495-0.952-0.742-2.065-0.742-3.34c0-2.399,0.812-4.286,2.439-5.659s3.875-2.06,6.745-2.06c1.41,0,2.755,0.167,4.036,0.501
		c1.279,0.334,2.619,0.804,4.017,1.41l-1.855,4.472c-1.447-0.594-2.644-1.008-3.591-1.243c-0.945-0.235-1.877-0.353-2.792-0.353
		c-1.089,0-1.924,0.254-2.505,0.761c-0.582,0.507-0.872,1.169-0.872,1.985c0,0.507,0.117,0.95,0.353,1.327
		c0.234,0.377,0.609,0.742,1.123,1.095c0.513,0.353,1.729,0.987,3.646,1.902c2.536,1.213,4.273,2.428,5.214,3.646
		C207.244,41.254,207.715,42.748,207.715,44.517z"/>
</g>
<g enable-background="new    ">
	<path fill="#CCCCCC" d="M35.112,30.067c0,0.645-0.232,1.152-0.696,1.523s-1.109,0.557-1.936,0.557c-0.762,0-1.436-0.144-2.021-0.43
		v-1.406c0.482,0.215,0.89,0.366,1.223,0.454s0.639,0.132,0.916,0.132c0.332,0,0.587-0.063,0.764-0.19s0.266-0.315,0.266-0.566
		c0-0.14-0.039-0.265-0.117-0.374c-0.078-0.108-0.193-0.214-0.344-0.314s-0.46-0.262-0.925-0.483
		c-0.436-0.205-0.763-0.402-0.981-0.591s-0.392-0.408-0.522-0.659s-0.195-0.544-0.195-0.879c0-0.632,0.214-1.128,0.642-1.489
		s1.02-0.542,1.775-0.542c0.371,0,0.725,0.044,1.062,0.132s0.689,0.212,1.057,0.371l-0.488,1.177
		c-0.381-0.156-0.696-0.266-0.945-0.327s-0.494-0.093-0.735-0.093c-0.287,0-0.506,0.066-0.659,0.2s-0.229,0.308-0.229,0.522
		c0,0.134,0.031,0.25,0.093,0.349c0.062,0.1,0.16,0.195,0.295,0.289c0.135,0.092,0.455,0.259,0.959,0.5
		c0.667,0.319,1.125,0.639,1.372,0.959C34.989,29.209,35.112,29.602,35.112,30.067z"/>
	<path fill="#CCCCCC" d="M36.406,32.05v-7.139h1.514v7.139H36.406z"/>
	<path fill="#CCCCCC" d="M42.471,32.05h-1.514v-5.879h-1.938v-1.26h5.391v1.26h-1.938V32.05z"/>
	<path fill="#CCCCCC" d="M49.619,32.05h-4.111v-7.139h4.111v1.24h-2.598v1.567h2.417v1.24h-2.417V30.8h2.598V32.05z"/>
</g>
</svg>
