<?xml version="1.0" encoding="utf-8"?>
<!-- Generator: Adobe Illustrator 15.0.0, SVG Export Plug-In . SVG Version: 6.00 Build 0)  -->
<!DOCTYPE svg PUBLIC "-//W3C//DTD SVG 1.1//EN" "http://www.w3.org/Graphics/SVG/1.1/DTD/svg11.dtd">
<svg version="1.1" id="Layer_1" xmlns="http://www.w3.org/2000/svg" xmlns:xlink="http://www.w3.org/1999/xlink" x="0px" y="0px"
	 width="230px" height="35px" viewBox="0 0 230 35" enable-background="new 0 0 230 35" xml:space="preserve">
<g>
	<g>
		<path fill="none" stroke="#888888" stroke-width="1.25" stroke-miterlimit="10" d="M29.159,4.613c0,0,12.939-6.796,29.142-2.659
			c0,0-20.227,22.161-27.552,26.74c-7.324,4.581-15.778,6.354-24.673,4.581c-8.896-1.773-7.394-9.752,10.207-10.783
			c17.603-1.035,39.349-1.988,39.349-1.988s3.015-0.229,4.518-0.229c1.502,0-1.4,5.17-4.705,4.875
			c-3.305-0.297-2.434-3.694,7.457-3.842c0,0,0.875-0.147,0.814,0.74c-0.06,0.885-2.588,3.25-2.588,3.25s-0.706,1.331,3.021-0.223
			c3.725-1.55,8.204-3.47,8.204-3.47s0.581,0.697,1.85,1.255c1.22,0.537,1.99,1.564,0.943,2.783
			c-0.779,0.907-2.936,2.314-4.107,1.428c-1.172-0.887,4.771-4.654,9.716-5.097c4.95-0.444,5.194,1.624,1.644,3.619
			c-3.551,1.995-3.667-3.324,2.556-4.432c6.223-1.109,4.122,0.664,4.122,0.664l-0.912,1.332l-1.696,2.51c0,0,2.567-3.914,6.51-3.322
			c3.945,0.588,0.331,3.839,0.331,3.839"/>
		<g>
			<path fill="none" stroke="#888888" stroke-width="1.25" stroke-miterlimit="10" d="M127.103,16.04
				c0,0,25.206-16.901,11.316-15.41c-13.891,1.492-28.971,12.553-32.371,15.784c-3.397,3.23-5.588,7.827,3.611,6.586
				c9.201-1.243,11.456-1.739,12.132,0.124c0.678,1.865-4.793,5.716-4.793,5.716s-10.386,6.836-13.708,1.616"/>
			<path fill="none" stroke="#888888" stroke-width="1.25" stroke-miterlimit="10" d="M133.89,20.649c0,0-5.185-1.286-8.294,2.069
				c-2.531,2.733,0.046,3.149,2.042,2.559C129.632,24.688,133.89,20.649,133.89,20.649z"/>
			<path fill="none" stroke="#888888" stroke-width="1.25" stroke-miterlimit="10" d="M133.89,20.649c0,0,2.171-0.146,0.848,1.922
				c-1.326,2.067-4.822,4.286-0.1,2.438c4.726-1.848,9.604-3.917,9.604-3.917s1.026-0.366-0.133,1.258
				c-1.155,1.624-2.208,3.69-0.654,2.288c1.553-1.403,6.2-6.131,6.2-6.131s0.602-0.515,0.115,0.96
				c-0.487,1.479,2.167,2.586,7.405,1.922c5.236-0.665,1.898-0.148,1.898-0.148"/>
			<path fill="none" stroke="#888888" stroke-width="1.25" stroke-miterlimit="10" d="M178.502,4.472
				c0,0-10.161,8.127-13.145,10.785c-2.984,2.659-11.007,9.827-7.837,9.753c3.17-0.075,8.873-3.251,8.873-3.251
				s3.181-1.553,2.377,0.221c-0.806,1.773-2.76,4.063-0.083,2.217c2.674-1.85,4.86-5.838,5.417-5.688
				c0.56,0.148-0.625,2.215,0.56,2.511c1.186,0.296,11.326,1.477,12.795,0.666c1.467-0.812,1.792-2.587-2.273-1.035
				c-4.069,1.551-2.223,5.909,3.28,3.989c5.501-1.92,16.188-4.359,18.001-4.284"/>
			<path fill="none" stroke="#888888" stroke-width="1.25" stroke-miterlimit="10" d="M148.029,14.297
				c0,0,16.396-3.102,26.456-2.067c10.062,1.035,5.731,3.103,5.731,3.103"/>
		</g>
	</g>
	<path fill="#888888" d="M212.974,22.396c-0.253,0.503-1.253,0.915-2.229,0.915c-0.979,0-1.562-0.412-1.311-0.915
		c0.254-0.506,1.254-0.918,2.23-0.918C212.64,21.479,213.226,21.891,212.974,22.396z"/>
</g>
</svg>
